<svg xmlns="http://www.w3.org/2000/svg" xmlns:xlink="http://www.w3.org/1999/xlink" width="1080" zoomAndPan="magnify" viewBox="0 0 810 809.999993" height="1080" preserveAspectRatio="xMidYMid meet" version="1.0"><defs><clipPath id="eaac4f8380"><path d="M 98 230 L 727 230 L 727 668 L 98 668 Z M 98 230 " clip-rule="nonzero"/></clipPath><clipPath id="56eb1de31a"><path d="M 362.390625 25.230469 L 796.730469 459.570312 L 446.183594 810.121094 L 11.84375 375.777344 Z M 362.390625 25.230469 " clip-rule="nonzero"/></clipPath><clipPath id="84fd5ab6ed"><path d="M 362.390625 25.230469 L 796.730469 459.570312 L 446.183594 810.121094 L 11.84375 375.777344 Z M 362.390625 25.230469 " clip-rule="nonzero"/></clipPath></defs><g clip-path="url(#eaac4f8380)"><g clip-path="url(#56eb1de31a)"><g clip-path="url(#84fd5ab6ed)"><path fill="#aed3b0" d="M 651.59375 604.777344 C 673.273438 582.875 691.882812 557.664062 705.296875 529.875 C 718.328125 502.890625 728.210938 472.71875 725.625 442.386719 C 723.101562 412.75 709.792969 385.511719 688.347656 364.914062 C 683.597656 360.347656 678.472656 356.148438 673.253906 352.0625 C 672.300781 350.695312 671.101562 349.46875 669.671875 348.460938 C 665.699219 345.667969 661.898438 342.648438 658.195312 339.511719 C 654.421875 336.226562 650.703125 332.839844 646.957031 329.484375 C 634.683594 304.707031 618.128906 281.058594 593.351562 268.199219 C 566.378906 254.195312 534.496094 256.261719 507.035156 267.828125 C 485.4375 276.925781 467.492188 292.757812 445.980469 302.035156 C 444.042969 302.871094 442.074219 303.628906 440.082031 304.324219 C 440.066406 304.304688 437.65625 305.050781 436.984375 305.226562 C 435.472656 305.621094 433.945312 305.941406 432.414062 306.230469 C 429.84375 306.71875 427.234375 306.996094 424.625 307.15625 C 424.042969 307.15625 423.464844 307.144531 422.882812 307.132812 C 421.175781 307.09375 419.46875 306.957031 417.769531 306.78125 C 416.265625 306.628906 414.769531 306.394531 413.277344 306.136719 C 412.917969 306.078125 412.554688 306.007812 412.191406 305.9375 C 411.917969 305.875 411.652344 305.8125 411.464844 305.765625 C 408.292969 304.957031 405.167969 303.886719 402.066406 302.851562 C 396.023438 300.835938 390.082031 298.535156 384.210938 296.082031 C 378.257812 293.597656 372.394531 290.910156 366.578125 288.128906 C 366.082031 287.890625 365.585938 287.652344 365.089844 287.410156 C 365.046875 287.390625 365.007812 287.371094 364.960938 287.347656 C 363.5625 286.660156 362.164062 285.960938 360.765625 285.261719 C 357.734375 283.738281 354.714844 282.1875 351.699219 280.632812 C 340.066406 274.625 328.539062 268.421875 316.863281 262.5 C 293.28125 250.539062 268.765625 239.363281 242.683594 234.207031 C 213.613281 228.460938 182.074219 229.632812 155.554688 243.9375 C 129.789062 257.839844 114.253906 283.875 105.984375 311.113281 C 97.921875 337.675781 97.003906 366.722656 100.058594 394.167969 C 103.613281 426.121094 113.714844 456.832031 130.796875 484.113281 C 147.632812 511.007812 172.234375 532.972656 199.917969 548.25 C 214.628906 556.367188 230.113281 562.929688 246.15625 567.910156 C 262.410156 572.957031 279.152344 576.132812 295.941406 578.789062 C 310.078125 581.027344 324.289062 582.792969 338.421875 585.074219 C 338.527344 585.089844 338.636719 585.109375 338.742188 585.125 C 339.15625 585.195312 339.96875 585.335938 340.386719 585.410156 C 342.019531 585.699219 343.652344 586.003906 345.28125 586.3125 C 348.785156 586.980469 352.273438 587.710938 355.75 588.496094 C 362.382812 589.992188 368.945312 591.78125 375.40625 593.894531 C 376.957031 594.402344 378.5 594.941406 380.035156 595.492188 C 380.6875 595.722656 382.714844 596.515625 383.46875 596.800781 C 386.203125 597.945312 388.90625 599.175781 391.574219 600.472656 C 397.371094 603.289062 402.957031 606.53125 408.324219 610.097656 C 408.332031 610.132812 411.132812 612.105469 411.839844 612.640625 C 413.3125 613.75 414.75 614.894531 416.179688 616.054688 C 419.253906 618.550781 422.171875 621.214844 425.097656 623.878906 C 429.792969 628.15625 434.671875 632.222656 439.726562 636.0625 C 459.59375 651.152344 482.296875 662.585938 507.09375 666.554688 C 531.890625 670.523438 557.367188 665.90625 580.207031 655.898438 C 606.992188 644.160156 631.121094 625.460938 651.59375 604.777344 Z M 651.59375 604.777344 " fill-opacity="1" fill-rule="nonzero"/></g></g></g></svg>