<svg xmlns="http://www.w3.org/2000/svg" xmlns:xlink="http://www.w3.org/1999/xlink" width="1080" zoomAndPan="magnify" viewBox="0 0 810 809.999993" height="1080" preserveAspectRatio="xMidYMid meet" version="1.0"><path fill="#aed3b0" d="M 23.050781 200.414062 C 0.441406 239.851562 10.089844 290.179688 22.679688 334.238281 C 35.261719 378.296875 50.148438 425.53125 36.066406 469.089844 C 31.8125 482.261719 24.941406 494.792969 23.949219 508.652344 C 22.050781 535.121094 42.816406 558.621094 66.554688 568.0625 C 90.285156 577.507812 116.484375 576.242188 141.871094 575.71875 C 167.257812 575.199219 193.835938 575.855469 216.171875 588.480469 C 261.5 614.105469 272.828125 677.933594 311.460938 713.585938 C 340.800781 740.667969 383.050781 748.121094 421.851562 742.703125 C 460.660156 737.292969 497.039062 720.492188 532.8125 703.882812 C 585.800781 679.277344 639.195312 654.4375 686.40625 619.265625 C 730.308594 586.566406 769.023438 544.015625 789.335938 491.820312 C 809.652344 439.625 809.449219 376.996094 780.746094 329.304688 C 757.195312 290.179688 714.890625 258.738281 713.625 212.535156 C 712.878906 185.386719 727.324219 158.777344 722.589844 132.070312 C 711.769531 71.070312 628.566406 61.902344 582.105469 68.632812 C 526.507812 76.683594 480.070312 109.417969 441.265625 150.117188 C 416.15625 176.441406 392.414062 209.386719 354.753906 214.6875 C 298.636719 222.59375 241.429688 179.804688 190.152344 162.394531 C 134.898438 143.628906 57.410156 140.46875 23.050781 200.414062 " fill-opacity="1" fill-rule="nonzero"/></svg>