<svg xmlns="http://www.w3.org/2000/svg" xmlns:xlink="http://www.w3.org/1999/xlink" width="1080" zoomAndPan="magnify" viewBox="0 0 810 809.999993" height="1080" preserveAspectRatio="xMidYMid meet" version="1.0"><defs><clipPath id="efd3bac361"><path d="M 99 174 L 762 174 L 762 720 L 99 720 Z M 99 174 " clip-rule="nonzero"/></clipPath><clipPath id="34970d7f74"><path d="M 177.980469 81 L 843.796875 237.675781 L 716.152344 780.109375 L 50.339844 623.433594 Z M 177.980469 81 " clip-rule="nonzero"/></clipPath><clipPath id="4b36c77577"><path d="M 177.980469 81 L 843.796875 237.675781 L 716.152344 780.109375 L 50.339844 623.433594 Z M 177.980469 81 " clip-rule="nonzero"/></clipPath></defs><g clip-path="url(#efd3bac361)"><g clip-path="url(#34970d7f74)"><g clip-path="url(#4b36c77577)"><path fill="#aed3b0" d="M 129.027344 405.261719 C 146.550781 384.117188 171.367188 367.28125 179.195312 341 C 190.582031 302.917969 161.546875 260.429688 175.890625 223.390625 C 187.390625 193.644531 222.855469 180.097656 254.78125 180.511719 C 286.621094 180.90625 317.519531 191.554688 349.292969 194.445312 C 389.1875 198.121094 429.035156 189.496094 468.433594 182.410156 C 507.832031 175.324219 548.71875 169.628906 587.632812 178.960938 C 626.542969 188.289062 663.5625 215.953125 672.828125 254.914062 C 678.378906 278.027344 673.773438 302.386719 676.796875 325.945312 C 682.460938 370.285156 713.609375 406.347656 736.433594 444.691406 C 759.339844 483.050781 773.644531 534.792969 746.738281 570.433594 C 717.445312 609.234375 657.882812 606.382812 617.328125 633.101562 C 579.441406 658.023438 558.078125 708.726562 513.707031 718.191406 C 483.554688 724.59375 453.011719 708.753906 428.898438 689.492188 C 404.785156 670.234375 383.496094 646.703125 355.765625 633.253906 C 289.425781 601.113281 204.726562 621.597656 140.285156 580.644531 C 84.167969 544.765625 90.742188 451.378906 129.027344 405.261719 Z M 129.027344 405.261719 " fill-opacity="1" fill-rule="nonzero"/></g></g></g></svg>