<svg xmlns="http://www.w3.org/2000/svg" xmlns:xlink="http://www.w3.org/1999/xlink" width="1080" zoomAndPan="magnify" viewBox="0 0 810 809.999993" height="1080" preserveAspectRatio="xMidYMid meet" version="1.0"><defs><clipPath id="f4cbaea59b"><path d="M 12 105 L 803 105 L 803 586 L 12 586 Z M 12 105 " clip-rule="nonzero"/></clipPath><clipPath id="495638611e"><path d="M 305.882812 898.355469 L -64.742188 366.808594 L 504.332031 -29.984375 L 874.957031 501.5625 Z M 305.882812 898.355469 " clip-rule="nonzero"/></clipPath><clipPath id="2de760815f"><path d="M 305.882812 898.355469 L -64.742188 366.808594 L 504.332031 -29.984375 L 874.957031 501.5625 Z M 305.882812 898.355469 " clip-rule="nonzero"/></clipPath></defs><g clip-path="url(#f4cbaea59b)"><g clip-path="url(#495638611e)"><g clip-path="url(#2de760815f)"><path fill="#aed3b0" d="M 775.101562 568.417969 C 759.085938 581.722656 736.535156 587.332031 716.15625 584.613281 C 689.832031 581.179688 673.070312 565.234375 656.382812 546.324219 C 637.070312 524.765625 606.046875 516.824219 578.804688 526.871094 C 563.472656 532.503906 549.949219 542.128906 536.6875 551.570312 C 507.714844 571.964844 475.832031 588.746094 440.503906 574.078125 C 403.125 558.699219 398.191406 517.582031 367.285156 496.132812 C 344.640625 480.402344 313.085938 483.140625 288.578125 492.640625 C 226.480469 516.871094 172.898438 567.269531 101.96875 543.957031 C 62.117188 530.886719 29.273438 501.644531 16.730469 460.773438 C 5.425781 423.90625 20.152344 385.039062 46.558594 358.453125 C 60.523438 344.433594 77.777344 333.183594 96.042969 325.894531 C 116.640625 317.761719 139.582031 311.878906 151.910156 291.609375 C 162.824219 273.496094 164.695312 250.789062 173.632812 231.519531 C 184.003906 208.722656 197.957031 187.710938 218 172.371094 C 254.21875 144.785156 292.402344 147.925781 332.75 163.378906 C 355.066406 171.945312 379.679688 182.410156 403.011719 171.785156 C 423.363281 162.460938 436.472656 143.589844 454.042969 130.5625 C 467.816406 120.179688 484.40625 113.277344 501.058594 109.257812 C 534.757812 100.9375 571.042969 106.378906 598.550781 128.25 C 633.933594 156.113281 644.289062 204.730469 652.960938 246.746094 C 657.1875 266.757812 663.070312 287.753906 676.113281 303.949219 C 689.617188 320.804688 707.730469 331.714844 723.75 346.035156 C 762.726562 380.730469 791.78125 421.5625 800.707031 473.710938 C 805.597656 502.210938 802.449219 535.925781 783.8125 559.425781 C 781.269531 562.753906 778.234375 565.652344 775.101562 568.417969 Z M 775.101562 568.417969 " fill-opacity="1" fill-rule="nonzero"/></g></g></g></svg>