<svg xmlns="http://www.w3.org/2000/svg" xmlns:xlink="http://www.w3.org/1999/xlink" width="1080" zoomAndPan="magnify" viewBox="0 0 810 809.999993" height="1080" preserveAspectRatio="xMidYMid meet" version="1.0"><defs><clipPath id="d6096e6c87"><path d="M 36 35 L 793 35 L 793 762 L 36 762 Z M 36 35 " clip-rule="nonzero"/></clipPath><clipPath id="ef7bab99f7"><path d="M 778.351562 22.046875 L 823.535156 750.398438 L 54.761719 798.085938 L 9.582031 69.738281 Z M 778.351562 22.046875 " clip-rule="nonzero"/></clipPath><clipPath id="f42c586fd4"><path d="M 54.492188 798.445312 L 9.308594 70.09375 L 778.082031 22.40625 L 823.261719 750.753906 Z M 54.492188 798.445312 " clip-rule="nonzero"/></clipPath><clipPath id="8467f96ad9"><path d="M 54.492188 798.445312 L 9.308594 70.09375 L 778.082031 22.40625 L 823.261719 750.753906 Z M 54.492188 798.445312 " clip-rule="nonzero"/></clipPath></defs><g clip-path="url(#d6096e6c87)"><g clip-path="url(#ef7bab99f7)"><g clip-path="url(#f42c586fd4)"><g clip-path="url(#8467f96ad9)"><path fill="#aed3b0" d="M 790.648438 226.105469 C 790.726562 227.425781 790.804688 228.75 790.886719 230.070312 C 791.246094 235.835938 791.609375 241.601562 791.976562 247.367188 C 792.359375 252.800781 791.515625 258.167969 790.710938 263.488281 C 788.75 276.464844 786.136719 289.332031 782.519531 301.964844 C 780.082031 310.457031 777.210938 318.808594 774.1875 327.105469 C 767.34375 345.886719 759.414062 364.261719 753.203125 383.273438 C 749.21875 395.464844 746.40625 407.910156 745.339844 420.734375 C 744.828125 426.890625 744.445312 433.023438 744.429688 439.203125 C 744.425781 442.847656 744.210938 446.5 744.667969 450.109375 C 745.519531 456.875 746.398438 463.640625 747.617188 470.367188 C 749.023438 478.175781 750.75 485.898438 752.585938 493.605469 C 754.097656 499.9375 755.984375 506.160156 757.988281 512.332031 C 761.667969 523.667969 765.839844 534.84375 770.570312 545.785156 C 776.140625 558.660156 781.113281 571.742188 785.074219 585.203125 C 787.195312 592.398438 788.628906 599.714844 789.75 607.140625 C 791.160156 616.464844 791.578125 625.84375 791.972656 635.214844 C 792.503906 647.675781 790.527344 659.808594 786.003906 671.5 C 784.125 676.34375 781.992188 681.0625 779.757812 685.75 C 777.597656 690.277344 774.601562 694.234375 771.65625 698.222656 C 768.773438 702.132812 765.695312 705.898438 762.46875 709.546875 C 755.464844 717.464844 747.328125 724.066406 738.648438 729.988281 C 724.894531 739.367188 710.027344 746.664062 694.460938 752.496094 C 686.824219 755.359375 678.917969 757.363281 670.820312 758.632812 C 668.09375 759.0625 665.375 759.472656 662.632812 759.722656 C 658.425781 759.625 654.332031 760.523438 650.199219 761.113281 C 645.488281 761.785156 640.75 760.574219 636.042969 761.378906 C 629.410156 761.480469 622.839844 760.695312 616.277344 759.875 C 608.289062 758.875 600.316406 757.761719 592.480469 755.792969 C 585.074219 753.933594 577.816406 751.625 570.667969 748.984375 C 563.824219 746.453125 556.984375 743.871094 550.296875 740.964844 C 536.707031 735.066406 523.300781 728.761719 510.058594 722.105469 C 498.007812 716.050781 485.789062 710.335938 473.734375 704.289062 C 463.144531 698.976562 452.367188 694.09375 441.378906 689.695312 C 427.300781 684.070312 412.976562 679.226562 397.960938 676.703125 C 390.234375 675.402344 382.476562 674.613281 374.632812 674.269531 C 368.734375 674.011719 362.882812 674.296875 357.089844 674.996094 C 350.871094 675.75 344.621094 676.449219 338.460938 677.804688 C 332.222656 679.179688 325.871094 680.019531 319.589844 681.199219 C 314.066406 682.234375 308.570312 683.394531 303.066406 684.535156 C 296.375 685.921875 289.695312 687.351562 283.011719 688.746094 C 277.296875 689.941406 271.585938 691.160156 265.855469 692.273438 C 261.527344 693.117188 257.199219 694.035156 252.824219 694.519531 C 243.386719 695.570312 234.007812 697.257812 224.511719 697.621094 C 204.285156 698.394531 184.390625 696.480469 165.132812 689.789062 C 154.96875 686.261719 145.277344 681.6875 135.820312 676.589844 C 127.148438 671.910156 118.992188 666.484375 111.390625 660.167969 C 101.664062 652.085938 93.140625 642.910156 85.085938 633.203125 C 73.746094 619.542969 65.492188 604.0625 58.191406 588.046875 C 52.558594 575.695312 47.355469 563.132812 43.53125 550.066406 C 41.703125 543.835938 40.171875 537.53125 39.148438 531.089844 C 37.875 523.121094 36.921875 515.140625 36.433594 507.089844 C 36.03125 500.46875 36.292969 493.863281 36.375 487.246094 C 36.449219 481.5 36.960938 475.808594 37.449219 470.101562 C 38.023438 463.371094 39.476562 456.804688 41.277344 450.316406 C 43.828125 441.132812 47.332031 432.292969 51.300781 423.644531 C 54.804688 416.011719 58.601562 408.515625 62.121094 400.890625 C 65.410156 393.761719 68.21875 386.421875 71.1875 379.152344 C 76.046875 367.242188 79.296875 354.878906 82.21875 342.390625 C 84.492188 332.695312 85.480469 322.824219 86.742188 312.996094 C 87.3125 308.570312 87.71875 303.972656 86.296875 299.511719 C 86.03125 298.691406 86.089844 297.757812 86.03125 296.878906 C 85.65625 291.132812 85.3125 285.390625 84.914062 279.648438 C 84.378906 271.929688 84.582031 264.21875 84.644531 256.492188 C 84.6875 250.53125 84.847656 244.578125 85.167969 238.644531 C 85.613281 230.394531 86.898438 222.21875 88.625 214.121094 C 90.773438 204.050781 93.464844 194.125 97.4375 184.636719 C 101.960938 173.828125 106.964844 163.210938 113.65625 153.523438 C 121.492188 142.191406 131.847656 133.804688 144.160156 127.636719 C 151.617188 123.902344 159.292969 120.832031 167.457031 119.269531 C 175.15625 117.789062 182.941406 117.175781 190.847656 117.394531 C 204.292969 117.777344 216.964844 121.484375 229.628906 125.417969 C 243.578125 129.75 257.78125 133.015625 272.25 134.933594 C 277.464844 135.625 282.785156 135.992188 288.101562 135.578125 C 294.394531 135.089844 300.714844 134.90625 306.996094 134.300781 C 312.367188 133.78125 317.664062 132.660156 322.972656 131.648438 C 330.121094 130.285156 337.191406 128.582031 344.226562 126.746094 C 353.308594 124.378906 362.351562 121.824219 370.960938 118.066406 C 381.996094 113.246094 392.902344 108.136719 403.8125 103.039062 C 408.214844 100.980469 412.535156 98.730469 416.789062 96.375 C 424.726562 91.984375 432.601562 87.480469 440.472656 82.972656 C 449.59375 77.75 458.625 72.375 467.792969 67.25 C 479.46875 60.726562 491.105469 54.109375 503.609375 49.230469 C 514.3125 45.058594 525.191406 41.382812 536.460938 39.105469 C 543.699219 37.644531 551.019531 36.476562 558.441406 36.195312 C 563.761719 35.867188 569.085938 35.535156 574.40625 35.210938 C 594.722656 34.347656 613.761719 39.121094 631.941406 47.980469 C 642.839844 53.285156 652.609375 60.21875 662.039062 67.746094 C 670.765625 74.710938 679.5 81.664062 687.605469 89.335938 C 693.792969 95.195312 700.066406 100.945312 706.59375 106.394531 C 715.074219 113.476562 723.695312 120.382812 731.972656 127.707031 C 739.835938 134.671875 747.109375 142.199219 753.984375 150.140625 C 760.933594 158.171875 767.445312 166.527344 772.90625 175.628906 C 780.335938 188.007812 785.910156 201.152344 788.726562 215.390625 C 789.441406 218.949219 790.15625 222.507812 790.648438 226.105469 Z M 790.648438 226.105469 " fill-opacity="1" fill-rule="nonzero"/></g></g></g></g></svg>